<svg id="visual" viewBox="0 0 1080 550" width="1080" height="550" xmlns="http://www.w3.org/2000/svg" xmlns:xlink="http://www.w3.org/1999/xlink" version="1.1"><path d="M0 40L16.3 41.8C32.7 43.7 65.3 47.3 98 50C130.7 52.7 163.3 54.3 196.2 59.8C229 65.3 262 74.7 294.8 72C327.7 69.3 360.3 54.7 393 55.5C425.7 56.3 458.3 72.7 491 73.5C523.7 74.3 556.3 59.7 589 54.2C621.7 48.7 654.3 52.3 687 58.8C719.7 65.3 752.3 74.7 785.2 71C818 67.3 851 50.7 883.8 49.7C916.7 48.7 949.3 63.3 982 71.7C1014.7 80 1047.3 82 1063.7 83L1080 84L1080 0L1063.7 0C1047.3 0 1014.7 0 982 0C949.3 0 916.7 0 883.8 0C851 0 818 0 785.2 0C752.3 0 719.7 0 687 0C654.3 0 621.7 0 589 0C556.3 0 523.7 0 491 0C458.3 0 425.7 0 393 0C360.3 0 327.7 0 294.8 0C262 0 229 0 196.2 0C163.3 0 130.7 0 98 0C65.3 0 32.7 0 16.3 0L0 0Z" fill="#ea39ab"></path><path d="M0 78L16.3 81.7C32.7 85.3 65.3 92.7 98 94.5C130.7 96.3 163.3 92.7 196.2 94.5C229 96.3 262 103.7 294.8 103.7C327.7 103.7 360.3 96.3 393 100C425.7 103.7 458.3 118.3 491 116.5C523.7 114.7 556.3 96.3 589 90C621.7 83.7 654.3 89.3 687 97.7C719.7 106 752.3 117 785.2 109.7C818 102.3 851 76.7 883.8 72C916.7 67.3 949.3 83.7 982 92.8C1014.7 102 1047.3 104 1063.7 105L1080 106L1080 82L1063.7 81C1047.3 80 1014.7 78 982 69.7C949.3 61.3 916.7 46.7 883.8 47.7C851 48.7 818 65.3 785.2 69C752.3 72.7 719.7 63.3 687 56.8C654.3 50.3 621.7 46.7 589 52.2C556.3 57.7 523.7 72.3 491 71.5C458.3 70.7 425.7 54.3 393 53.5C360.3 52.7 327.7 67.3 294.8 70C262 72.7 229 63.3 196.2 57.8C163.3 52.3 130.7 50.7 98 48C65.3 45.3 32.7 41.7 16.3 39.8L0 38Z" fill="#e03aaa"></path><path d="M0 150L16.3 152.7C32.7 155.3 65.3 160.7 98 157.8C130.7 155 163.3 144 196.2 145.8C229 147.7 262 162.3 294.8 172.5C327.7 182.7 360.3 188.3 393 193.8C425.7 199.3 458.3 204.7 491 192.7C523.7 180.7 556.3 151.3 589 141.3C621.7 131.3 654.3 140.7 687 153.5C719.7 166.3 752.3 182.7 785.2 179C818 175.3 851 151.7 883.8 146.2C916.7 140.7 949.3 153.3 982 157.8C1014.7 162.3 1047.3 158.7 1063.7 156.8L1080 155L1080 104L1063.7 103C1047.3 102 1014.7 100 982 90.8C949.3 81.7 916.7 65.3 883.8 70C851 74.7 818 100.3 785.2 107.7C752.3 115 719.7 104 687 95.7C654.3 87.3 621.7 81.7 589 88C556.3 94.3 523.7 112.7 491 114.5C458.3 116.3 425.7 101.7 393 98C360.3 94.3 327.7 101.7 294.8 101.7C262 101.7 229 94.3 196.2 92.5C163.3 90.7 130.7 94.3 98 92.5C65.3 90.7 32.7 83.3 16.3 79.7L0 76Z" fill="#d53ba9"></path><path d="M0 194L16.3 192.2C32.7 190.3 65.3 186.7 98 186.7C130.7 186.7 163.3 190.3 196.2 194.8C229 199.3 262 204.7 294.8 212.8C327.7 221 360.3 232 393 236.7C425.7 241.3 458.3 239.7 491 227.8C523.7 216 556.3 194 589 188.5C621.7 183 654.3 194 687 203.2C719.7 212.3 752.3 219.7 785.2 212.3C818 205 851 183 883.8 176.5C916.7 170 949.3 179 982 185.3C1014.7 191.7 1047.3 195.3 1063.7 197.2L1080 199L1080 153L1063.7 154.8C1047.3 156.7 1014.7 160.3 982 155.8C949.3 151.3 916.7 138.7 883.8 144.2C851 149.7 818 173.3 785.2 177C752.3 180.7 719.7 164.3 687 151.5C654.3 138.7 621.7 129.3 589 139.3C556.3 149.3 523.7 178.7 491 190.7C458.3 202.7 425.7 197.3 393 191.8C360.3 186.3 327.7 180.7 294.8 170.5C262 160.3 229 145.7 196.2 143.8C163.3 142 130.7 153 98 155.8C65.3 158.7 32.7 153.3 16.3 150.7L0 148Z" fill="#cb3ba7"></path><path d="M0 238L16.3 234.3C32.7 230.7 65.3 223.3 98 223.3C130.7 223.3 163.3 230.7 196.2 237C229 243.3 262 248.7 294.8 252.3C327.7 256 360.3 258 393 259C425.7 260 458.3 260 491 249.8C523.7 239.7 556.3 219.3 589 212.8C621.7 206.3 654.3 213.7 687 222C719.7 230.3 752.3 239.7 785.2 235.2C818 230.7 851 212.3 883.8 206.8C916.7 201.3 949.3 208.7 982 213.2C1014.7 217.7 1047.3 219.3 1063.7 220.2L1080 221L1080 197L1063.7 195.2C1047.3 193.3 1014.7 189.7 982 183.3C949.3 177 916.7 168 883.8 174.5C851 181 818 203 785.2 210.3C752.3 217.7 719.7 210.3 687 201.2C654.3 192 621.7 181 589 186.5C556.3 192 523.7 214 491 225.8C458.3 237.7 425.7 239.3 393 234.7C360.3 230 327.7 219 294.8 210.8C262 202.7 229 197.3 196.2 192.8C163.3 188.3 130.7 184.7 98 184.7C65.3 184.7 32.7 188.3 16.3 190.2L0 192Z" fill="#c13ca5"></path><path d="M0 309L16.3 310.8C32.7 312.7 65.3 316.3 98 315.5C130.7 314.7 163.3 309.3 196.2 307.5C229 305.7 262 307.3 294.8 321C327.7 334.7 360.3 360.3 393 378.7C425.7 397 458.3 408 491 405.3C523.7 402.7 556.3 386.3 589 381.8C621.7 377.3 654.3 384.7 687 381.8C719.7 379 752.3 366 785.2 346.7C818 327.3 851 301.7 883.8 288.8C916.7 276 949.3 276 982 288C1014.7 300 1047.3 324 1063.7 336L1080 348L1080 219L1063.7 218.2C1047.3 217.3 1014.7 215.7 982 211.2C949.3 206.7 916.7 199.3 883.8 204.8C851 210.3 818 228.7 785.2 233.2C752.3 237.7 719.7 228.3 687 220C654.3 211.7 621.7 204.3 589 210.8C556.3 217.3 523.7 237.7 491 247.8C458.3 258 425.7 258 393 257C360.3 256 327.7 254 294.8 250.3C262 246.7 229 241.3 196.2 235C163.3 228.7 130.7 221.3 98 221.3C65.3 221.3 32.7 228.7 16.3 232.3L0 236Z" fill="#b73da3"></path><path d="M0 342L16.3 349.3C32.7 356.7 65.3 371.3 98 373.2C130.7 375 163.3 364 196.2 359.5C229 355 262 357 294.8 370.8C327.7 384.7 360.3 410.3 393 425C425.7 439.7 458.3 443.3 491 436C523.7 428.7 556.3 410.3 589 412.2C621.7 414 654.3 436 687 436C719.7 436 752.3 414 785.2 390.2C818 366.3 851 340.7 883.8 326.8C916.7 313 949.3 311 982 323.8C1014.7 336.7 1047.3 364.3 1063.7 378.2L1080 392L1080 346L1063.7 334C1047.3 322 1014.7 298 982 286C949.3 274 916.7 274 883.8 286.8C851 299.7 818 325.3 785.2 344.7C752.3 364 719.7 377 687 379.8C654.3 382.7 621.7 375.3 589 379.8C556.3 384.3 523.7 400.7 491 403.3C458.3 406 425.7 395 393 376.7C360.3 358.3 327.7 332.7 294.8 319C262 305.3 229 303.7 196.2 305.5C163.3 307.3 130.7 312.7 98 313.5C65.3 314.3 32.7 310.7 16.3 308.8L0 307Z" fill="#ad3da0"></path><path d="M0 386L16.3 391.5C32.7 397 65.3 408 98 408C130.7 408 163.3 397 196.2 389.7C229 382.3 262 378.7 294.8 394.3C327.7 410 360.3 445 393 460.7C425.7 476.3 458.3 472.7 491 462.5C523.7 452.3 556.3 435.7 589 437.5C621.7 439.3 654.3 459.7 687 462.5C719.7 465.3 752.3 450.7 785.2 430.5C818 410.3 851 384.7 883.8 370.8C916.7 357 949.3 355 982 366C1014.7 377 1047.3 401 1063.7 413L1080 425L1080 390L1063.7 376.2C1047.3 362.3 1014.7 334.7 982 321.8C949.3 309 916.7 311 883.8 324.8C851 338.7 818 364.3 785.2 388.2C752.3 412 719.7 434 687 434C654.3 434 621.7 412 589 410.2C556.3 408.3 523.7 426.7 491 434C458.3 441.3 425.7 437.7 393 423C360.3 408.3 327.7 382.7 294.8 368.8C262 355 229 353 196.2 357.5C163.3 362 130.7 373 98 371.2C65.3 369.3 32.7 354.7 16.3 347.3L0 340Z" fill="#a43d9d"></path><path d="M0 551L16.3 551C32.7 551 65.3 551 98 551C130.7 551 163.3 551 196.2 551C229 551 262 551 294.8 551C327.7 551 360.3 551 393 551C425.7 551 458.3 551 491 551C523.7 551 556.3 551 589 551C621.7 551 654.3 551 687 551C719.7 551 752.3 551 785.2 551C818 551 851 551 883.8 551C916.7 551 949.3 551 982 551C1014.7 551 1047.3 551 1063.7 551L1080 551L1080 423L1063.7 411C1047.3 399 1014.7 375 982 364C949.3 353 916.7 355 883.8 368.8C851 382.7 818 408.3 785.2 428.5C752.3 448.7 719.7 463.3 687 460.5C654.3 457.7 621.7 437.3 589 435.5C556.3 433.7 523.7 450.3 491 460.5C458.3 470.7 425.7 474.3 393 458.7C360.3 443 327.7 408 294.8 392.3C262 376.7 229 380.3 196.2 387.7C163.3 395 130.7 406 98 406C65.3 406 32.7 395 16.3 389.5L0 384Z" fill="#9a3d9a"></path></svg>