<svg id="visual" viewBox="0 0 960 540" width="960" height="540" xmlns="http://www.w3.org/2000/svg" xmlns:xlink="http://www.w3.org/1999/xlink" version="1.1"><path d="M0 33L120 33L240 60L360 17L480 17L600 17L720 23L840 55L960 28L960 0L840 0L720 0L600 0L480 0L360 0L240 0L120 0L0 0Z" fill="#e40694"></path><path d="M0 98L120 60L240 163L360 104L480 158L600 93L720 71L840 152L960 104L960 26L840 53L720 21L600 15L480 15L360 15L240 58L120 31L0 31Z" fill="#da1997"></path><path d="M0 147L120 114L240 185L360 114L480 212L600 141L720 104L840 212L960 147L960 102L840 150L720 69L600 91L480 156L360 102L240 161L120 58L0 96Z" fill="#d02399"></path><path d="M0 190L120 298L240 222L360 163L480 249L600 303L720 222L840 282L960 309L960 145L840 210L720 102L600 139L480 210L360 112L240 183L120 112L0 145Z" fill="#c52b9a"></path><path d="M0 228L120 347L240 239L360 179L480 271L600 325L720 282L840 314L960 336L960 307L840 280L720 220L600 301L480 247L360 161L240 220L120 296L0 188Z" fill="#bb319b"></path><path d="M0 271L120 374L240 276L360 244L480 325L600 390L720 325L840 347L960 390L960 334L840 312L720 280L600 323L480 269L360 177L240 237L120 345L0 226Z" fill="#b0369c"></path><path d="M0 492L120 449L240 476L360 503L480 519L600 438L720 503L840 509L960 444L960 388L840 345L720 323L600 388L480 323L360 242L240 274L120 372L0 269Z" fill="#a63a9c"></path><path d="M0 541L120 541L240 541L360 541L480 541L600 541L720 541L840 541L960 541L960 442L840 507L720 501L600 436L480 517L360 501L240 474L120 447L0 490Z" fill="#9b3d9b"></path></svg>