<svg id="visual" viewBox="0 0 960 540" width="960" height="540" xmlns="http://www.w3.org/2000/svg" xmlns:xlink="http://www.w3.org/1999/xlink" version="1.1"><g stroke-width="1" stroke-linejoin="bevel"><path d="M467 300L444 286L459 300Z" fill="#461e65" stroke="#461e65"></path><path d="M444 286L414 360L459 300Z" fill="#832a88" stroke="#832a88"></path><path d="M487 354L511 316L467 300Z" fill="#732880" stroke="#732880"></path><path d="M467 300L533 282L444 286Z" fill="#832a88" stroke="#832a88"></path><path d="M441 180L395 234L410 268Z" fill="#c734a2" stroke="#c734a2"></path><path d="M511 316L533 282L467 300Z" fill="#54226e" stroke="#54226e"></path><path d="M414 360L487 354L459 300Z" fill="#632577" stroke="#632577"></path><path d="M459 300L487 354L467 300Z" fill="#732880" stroke="#732880"></path><path d="M555 363L582 249L533 282Z" fill="#832a88" stroke="#832a88"></path><path d="M441 180L410 268L444 286Z" fill="#b5329c" stroke="#b5329c"></path><path d="M392 372L414 360L410 268Z" fill="#b5329c" stroke="#b5329c"></path><path d="M410 268L414 360L444 286Z" fill="#832a88" stroke="#832a88"></path><path d="M414 360L419 371L487 354Z" fill="#732880" stroke="#732880"></path><path d="M533 282L441 180L444 286Z" fill="#54226e" stroke="#54226e"></path><path d="M298 249L392 372L410 268Z" fill="#b5329c" stroke="#b5329c"></path><path d="M414 360L392 372L419 371Z" fill="#732880" stroke="#732880"></path><path d="M555 363L533 282L511 316Z" fill="#461e65" stroke="#461e65"></path><path d="M533 282L538 182L441 180Z" fill="#732880" stroke="#732880"></path><path d="M554 392L555 363L487 354Z" fill="#461e65" stroke="#461e65"></path><path d="M487 354L555 363L511 316Z" fill="#c734a2" stroke="#c734a2"></path><path d="M582 249L538 182L533 282Z" fill="#54226e" stroke="#54226e"></path><path d="M441 180L380 178L395 234Z" fill="#ea39ab" stroke="#ea39ab"></path><path d="M395 234L298 249L410 268Z" fill="#832a88" stroke="#832a88"></path><path d="M445 116L380 178L441 180Z" fill="#54226e" stroke="#54226e"></path><path d="M380 178L356 186L395 234Z" fill="#c734a2" stroke="#c734a2"></path><path d="M550 455L554 392L487 354Z" fill="#461e65" stroke="#461e65"></path><path d="M555 363L639 352L582 249Z" fill="#ea39ab" stroke="#ea39ab"></path><path d="M415 466L487 354L419 371Z" fill="#a43096" stroke="#a43096"></path><path d="M538 182L463 130L441 180Z" fill="#461e65" stroke="#461e65"></path><path d="M380 178L352 145L356 186Z" fill="#732880" stroke="#732880"></path><path d="M340 412L388 416L392 372Z" fill="#54226e" stroke="#54226e"></path><path d="M392 372L388 416L419 371Z" fill="#732880" stroke="#732880"></path><path d="M480 102L445 116L463 130Z" fill="#461e65" stroke="#461e65"></path><path d="M463 130L445 116L441 180Z" fill="#832a88" stroke="#832a88"></path><path d="M582 249L605 192L538 182Z" fill="#632577" stroke="#632577"></path><path d="M538 182L541 129L463 130Z" fill="#b5329c" stroke="#b5329c"></path><path d="M641 255L605 192L582 249Z" fill="#c734a2" stroke="#c734a2"></path><path d="M356 186L298 249L395 234Z" fill="#832a88" stroke="#832a88"></path><path d="M605 192L541 129L538 182Z" fill="#a43096" stroke="#a43096"></path><path d="M541 129L483 111L463 130Z" fill="#932d8f" stroke="#932d8f"></path><path d="M356 122L352 145L380 178Z" fill="#461e65" stroke="#461e65"></path><path d="M356 186L304 124L298 249Z" fill="#a43096" stroke="#a43096"></path><path d="M554 392L615 376L555 363Z" fill="#732880" stroke="#732880"></path><path d="M483 111L480 102L463 130Z" fill="#732880" stroke="#732880"></path><path d="M395 99L356 122L380 178Z" fill="#832a88" stroke="#832a88"></path><path d="M541 129L480 102L483 111Z" fill="#832a88" stroke="#832a88"></path><path d="M639 352L641 255L582 249Z" fill="#d837a7" stroke="#d837a7"></path><path d="M274 381L340 412L392 372Z" fill="#54226e" stroke="#54226e"></path><path d="M615 376L639 352L555 363Z" fill="#d837a7" stroke="#d837a7"></path><path d="M395 99L380 178L445 116Z" fill="#a43096" stroke="#a43096"></path><path d="M204 221L242 268L298 249Z" fill="#932d8f" stroke="#932d8f"></path><path d="M347 461L415 466L388 416Z" fill="#461e65" stroke="#461e65"></path><path d="M388 416L415 466L419 371Z" fill="#d837a7" stroke="#d837a7"></path><path d="M554 392L550 455L615 376Z" fill="#54226e" stroke="#54226e"></path><path d="M443 82L395 99L445 116Z" fill="#b5329c" stroke="#b5329c"></path><path d="M531 479L550 455L487 354Z" fill="#461e65" stroke="#461e65"></path><path d="M615 376L632 384L639 352Z" fill="#b5329c" stroke="#b5329c"></path><path d="M550 455L632 384L615 376Z" fill="#54226e" stroke="#54226e"></path><path d="M479 0L443 82L480 102Z" fill="#732880" stroke="#732880"></path><path d="M480 102L443 82L445 116Z" fill="#ea39ab" stroke="#ea39ab"></path><path d="M249 298L263 289L242 268Z" fill="#d837a7" stroke="#d837a7"></path><path d="M298 249L263 289L392 372Z" fill="#a43096" stroke="#a43096"></path><path d="M415 466L531 479L487 354Z" fill="#a43096" stroke="#a43096"></path><path d="M550 455L666 451L632 384Z" fill="#a43096" stroke="#a43096"></path><path d="M263 289L274 381L392 372Z" fill="#732880" stroke="#732880"></path><path d="M340 412L347 461L388 416Z" fill="#d837a7" stroke="#d837a7"></path><path d="M639 352L674 244L641 255Z" fill="#d837a7" stroke="#d837a7"></path><path d="M641 255L674 244L605 192Z" fill="#ea39ab" stroke="#ea39ab"></path><path d="M605 192L602 86L541 129Z" fill="#54226e" stroke="#54226e"></path><path d="M724 263L674 244L639 352Z" fill="#632577" stroke="#632577"></path><path d="M269 405L347 461L340 412Z" fill="#932d8f" stroke="#932d8f"></path><path d="M415 466L427 516L531 479Z" fill="#632577" stroke="#632577"></path><path d="M242 268L263 289L298 249Z" fill="#932d8f" stroke="#932d8f"></path><path d="M263 289L249 298L274 381Z" fill="#ea39ab" stroke="#ea39ab"></path><path d="M347 461L408 490L415 466Z" fill="#632577" stroke="#632577"></path><path d="M304 124L356 186L352 145Z" fill="#d837a7" stroke="#d837a7"></path><path d="M315 69L304 124L356 122Z" fill="#ea39ab" stroke="#ea39ab"></path><path d="M356 122L304 124L352 145Z" fill="#632577" stroke="#632577"></path><path d="M355 74L356 122L395 99Z" fill="#932d8f" stroke="#932d8f"></path><path d="M233 455L269 405L143 354Z" fill="#632577" stroke="#632577"></path><path d="M274 381L269 405L340 412Z" fill="#832a88" stroke="#832a88"></path><path d="M269 405L274 381L143 354Z" fill="#c734a2" stroke="#c734a2"></path><path d="M393 0L355 74L395 99Z" fill="#461e65" stroke="#461e65"></path><path d="M368 536L427 516L408 490Z" fill="#932d8f" stroke="#932d8f"></path><path d="M408 490L427 516L415 466Z" fill="#ea39ab" stroke="#ea39ab"></path><path d="M645 105L602 86L605 192Z" fill="#b5329c" stroke="#b5329c"></path><path d="M541 129L582 67L480 102Z" fill="#ea39ab" stroke="#ea39ab"></path><path d="M443 82L393 0L395 99Z" fill="#ea39ab" stroke="#ea39ab"></path><path d="M602 86L582 67L541 129Z" fill="#c734a2" stroke="#c734a2"></path><path d="M715 138L645 105L605 192Z" fill="#b5329c" stroke="#b5329c"></path><path d="M602 86L625 0L582 67Z" fill="#461e65" stroke="#461e65"></path><path d="M315 69L282 100L304 124Z" fill="#932d8f" stroke="#932d8f"></path><path d="M304 124L204 221L298 249Z" fill="#461e65" stroke="#461e65"></path><path d="M333 0L315 69L355 74Z" fill="#732880" stroke="#732880"></path><path d="M355 74L315 69L356 122Z" fill="#932d8f" stroke="#932d8f"></path><path d="M737 353L724 263L639 352Z" fill="#b5329c" stroke="#b5329c"></path><path d="M674 244L715 138L605 192Z" fill="#54226e" stroke="#54226e"></path><path d="M427 516L503 540L531 479Z" fill="#832a88" stroke="#832a88"></path><path d="M609 538L666 451L550 455Z" fill="#732880" stroke="#732880"></path><path d="M609 538L550 455L531 479Z" fill="#a43096" stroke="#a43096"></path><path d="M632 384L718 378L639 352Z" fill="#461e65" stroke="#461e65"></path><path d="M249 102L204 221L304 124Z" fill="#54226e" stroke="#54226e"></path><path d="M242 268L163 273L249 298Z" fill="#54226e" stroke="#54226e"></path><path d="M724 263L726 222L674 244Z" fill="#b5329c" stroke="#b5329c"></path><path d="M363 540L368 536L350 540Z" fill="#54226e" stroke="#54226e"></path><path d="M347 461L368 536L408 490Z" fill="#832a88" stroke="#832a88"></path><path d="M427 516L363 540L503 540Z" fill="#732880" stroke="#732880"></path><path d="M692 436L718 378L632 384Z" fill="#54226e" stroke="#54226e"></path><path d="M666 451L692 436L632 384Z" fill="#a43096" stroke="#a43096"></path><path d="M350 540L368 536L347 461Z" fill="#a43096" stroke="#a43096"></path><path d="M368 536L363 540L427 516Z" fill="#a43096" stroke="#a43096"></path><path d="M268 0L249 102L282 100Z" fill="#ea39ab" stroke="#ea39ab"></path><path d="M282 100L249 102L304 124Z" fill="#d837a7" stroke="#d837a7"></path><path d="M692 436L727 377L718 378Z" fill="#461e65" stroke="#461e65"></path><path d="M718 378L737 353L639 352Z" fill="#b5329c" stroke="#b5329c"></path><path d="M724 263L741 236L726 222Z" fill="#a43096" stroke="#a43096"></path><path d="M535 0L480 102L582 67Z" fill="#ea39ab" stroke="#ea39ab"></path><path d="M535 0L479 0L480 102Z" fill="#732880" stroke="#732880"></path><path d="M766 347L741 236L724 263Z" fill="#932d8f" stroke="#932d8f"></path><path d="M726 222L715 138L674 244Z" fill="#932d8f" stroke="#932d8f"></path><path d="M301 531L350 540L347 461Z" fill="#54226e" stroke="#54226e"></path><path d="M727 377L737 353L718 378Z" fill="#b5329c" stroke="#b5329c"></path><path d="M143 354L274 381L249 298Z" fill="#932d8f" stroke="#932d8f"></path><path d="M269 405L233 455L347 461Z" fill="#632577" stroke="#632577"></path><path d="M479 0L393 0L443 82Z" fill="#632577" stroke="#632577"></path><path d="M315 69L277 1L282 100Z" fill="#832a88" stroke="#832a88"></path><path d="M745 197L715 138L726 222Z" fill="#a43096" stroke="#a43096"></path><path d="M625 0L535 0L582 67Z" fill="#a43096" stroke="#a43096"></path><path d="M625 0L602 86L677 30Z" fill="#461e65" stroke="#461e65"></path><path d="M762 189L745 197L741 236Z" fill="#461e65" stroke="#461e65"></path><path d="M741 236L745 197L726 222Z" fill="#461e65" stroke="#461e65"></path><path d="M607 540L609 538L531 479Z" fill="#54226e" stroke="#54226e"></path><path d="M666 451L722 467L692 436Z" fill="#632577" stroke="#632577"></path><path d="M503 540L607 540L531 479Z" fill="#a43096" stroke="#a43096"></path><path d="M233 455L301 531L347 461Z" fill="#54226e" stroke="#54226e"></path><path d="M129 226L163 273L204 221Z" fill="#d837a7" stroke="#d837a7"></path><path d="M204 221L163 273L242 268Z" fill="#a43096" stroke="#a43096"></path><path d="M186 540L302 540L301 531Z" fill="#732880" stroke="#732880"></path><path d="M301 531L302 540L350 540Z" fill="#ea39ab" stroke="#ea39ab"></path><path d="M393 0L333 0L355 74Z" fill="#732880" stroke="#732880"></path><path d="M776 361L766 347L737 353Z" fill="#a43096" stroke="#a43096"></path><path d="M737 353L766 347L724 263Z" fill="#ea39ab" stroke="#ea39ab"></path><path d="M776 361L737 353L727 377Z" fill="#732880" stroke="#732880"></path><path d="M722 467L727 377L692 436Z" fill="#932d8f" stroke="#932d8f"></path><path d="M788 172L762 189L810 174Z" fill="#c734a2" stroke="#c734a2"></path><path d="M745 197L762 189L715 138Z" fill="#c734a2" stroke="#c734a2"></path><path d="M652 540L666 451L609 538Z" fill="#a43096" stroke="#a43096"></path><path d="M682 540L722 467L666 451Z" fill="#a43096" stroke="#a43096"></path><path d="M607 540L652 540L609 538Z" fill="#c734a2" stroke="#c734a2"></path><path d="M822 449L776 361L727 377Z" fill="#632577" stroke="#632577"></path><path d="M810 174L762 189L741 236Z" fill="#d837a7" stroke="#d837a7"></path><path d="M126 439L203 474L233 455Z" fill="#c734a2" stroke="#c734a2"></path><path d="M233 455L207 484L301 531Z" fill="#54226e" stroke="#54226e"></path><path d="M677 30L602 86L645 105Z" fill="#732880" stroke="#732880"></path><path d="M677 30L645 105L711 55Z" fill="#a43096" stroke="#a43096"></path><path d="M203 474L207 484L233 455Z" fill="#a43096" stroke="#a43096"></path><path d="M163 273L143 354L249 298Z" fill="#932d8f" stroke="#932d8f"></path><path d="M151 540L186 540L207 484Z" fill="#ea39ab" stroke="#ea39ab"></path><path d="M711 55L645 105L715 138Z" fill="#732880" stroke="#732880"></path><path d="M762 189L762 133L715 138Z" fill="#a43096" stroke="#a43096"></path><path d="M788 172L762 133L762 189Z" fill="#b5329c" stroke="#b5329c"></path><path d="M163 273L129 307L143 354Z" fill="#632577" stroke="#632577"></path><path d="M98 263L129 307L163 273Z" fill="#d837a7" stroke="#d837a7"></path><path d="M774 95L711 55L715 138Z" fill="#b5329c" stroke="#b5329c"></path><path d="M333 0L277 1L315 69Z" fill="#ea39ab" stroke="#ea39ab"></path><path d="M249 102L167 121L204 221Z" fill="#c734a2" stroke="#c734a2"></path><path d="M167 76L167 121L249 102Z" fill="#c734a2" stroke="#c734a2"></path><path d="M124 217L129 226L204 221Z" fill="#d837a7" stroke="#d837a7"></path><path d="M652 540L682 540L666 451Z" fill="#932d8f" stroke="#932d8f"></path><path d="M333 0L269 0L277 1Z" fill="#d837a7" stroke="#d837a7"></path><path d="M277 1L268 0L282 100Z" fill="#54226e" stroke="#54226e"></path><path d="M167 121L144 159L204 221Z" fill="#d837a7" stroke="#d837a7"></path><path d="M269 0L268 0L277 1Z" fill="#b5329c" stroke="#b5329c"></path><path d="M810 174L741 236L877 205Z" fill="#a43096" stroke="#a43096"></path><path d="M758 0L678 0L711 55Z" fill="#d837a7" stroke="#d837a7"></path><path d="M682 540L722 521L722 467Z" fill="#c734a2" stroke="#c734a2"></path><path d="M722 467L822 449L727 377Z" fill="#632577" stroke="#632577"></path><path d="M144 159L124 217L204 221Z" fill="#d837a7" stroke="#d837a7"></path><path d="M129 226L98 263L163 273Z" fill="#a43096" stroke="#a43096"></path><path d="M677 30L666 0L625 0Z" fill="#461e65" stroke="#461e65"></path><path d="M678 0L666 0L677 30Z" fill="#461e65" stroke="#461e65"></path><path d="M690 540L722 521L682 540Z" fill="#54226e" stroke="#54226e"></path><path d="M774 95L715 138L762 133Z" fill="#b5329c" stroke="#b5329c"></path><path d="M711 55L678 0L677 30Z" fill="#632577" stroke="#632577"></path><path d="M268 0L167 76L249 102Z" fill="#ea39ab" stroke="#ea39ab"></path><path d="M96 108L92 163L144 159Z" fill="#a43096" stroke="#a43096"></path><path d="M92 163L98 263L124 217Z" fill="#732880" stroke="#732880"></path><path d="M808 91L774 95L762 133Z" fill="#c734a2" stroke="#c734a2"></path><path d="M877 205L741 236L766 347Z" fill="#461e65" stroke="#461e65"></path><path d="M788 172L810 174L762 133Z" fill="#832a88" stroke="#832a88"></path><path d="M92 163L124 217L144 159Z" fill="#732880" stroke="#732880"></path><path d="M124 217L98 263L129 226Z" fill="#a43096" stroke="#a43096"></path><path d="M129 307L95 328L143 354Z" fill="#632577" stroke="#632577"></path><path d="M143 354L126 439L233 455Z" fill="#461e65" stroke="#461e65"></path><path d="M98 263L95 328L129 307Z" fill="#632577" stroke="#632577"></path><path d="M94 415L126 439L143 354Z" fill="#a43096" stroke="#a43096"></path><path d="M207 484L186 540L301 531Z" fill="#932d8f" stroke="#932d8f"></path><path d="M151 540L207 484L203 474Z" fill="#a43096" stroke="#a43096"></path><path d="M96 108L144 159L167 121Z" fill="#d837a7" stroke="#d837a7"></path><path d="M98 263L47 291L95 328Z" fill="#832a88" stroke="#832a88"></path><path d="M63 440L94 415L28 431Z" fill="#54226e" stroke="#54226e"></path><path d="M95 328L94 415L143 354Z" fill="#d837a7" stroke="#d837a7"></path><path d="M126 439L151 540L203 474Z" fill="#ea39ab" stroke="#ea39ab"></path><path d="M810 174L808 91L762 133Z" fill="#ea39ab" stroke="#ea39ab"></path><path d="M774 95L758 0L711 55Z" fill="#b5329c" stroke="#b5329c"></path><path d="M722 521L822 449L722 467Z" fill="#a43096" stroke="#a43096"></path><path d="M923 306L877 205L766 347Z" fill="#932d8f" stroke="#932d8f"></path><path d="M810 174L888 120L808 91Z" fill="#a43096" stroke="#a43096"></path><path d="M125 38L117 80L167 76Z" fill="#a43096" stroke="#a43096"></path><path d="M167 76L117 80L167 121Z" fill="#732880" stroke="#732880"></path><path d="M117 80L96 108L167 121Z" fill="#c734a2" stroke="#c734a2"></path><path d="M134 540L151 540L126 439Z" fill="#a43096" stroke="#a43096"></path><path d="M808 91L758 0L774 95Z" fill="#461e65" stroke="#461e65"></path><path d="M148 0L125 38L167 76Z" fill="#b5329c" stroke="#b5329c"></path><path d="M117 80L107 24L96 108Z" fill="#832a88" stroke="#832a88"></path><path d="M39 266L47 291L98 263Z" fill="#c734a2" stroke="#c734a2"></path><path d="M39 266L98 263L92 163Z" fill="#832a88" stroke="#832a88"></path><path d="M69 540L134 540L126 439Z" fill="#a43096" stroke="#a43096"></path><path d="M63 440L126 439L94 415Z" fill="#b5329c" stroke="#b5329c"></path><path d="M880 365L766 347L776 361Z" fill="#932d8f" stroke="#932d8f"></path><path d="M808 91L822 0L758 0Z" fill="#d837a7" stroke="#d837a7"></path><path d="M268 0L148 0L167 76Z" fill="#d837a7" stroke="#d837a7"></path><path d="M822 449L864 412L776 361Z" fill="#a43096" stroke="#a43096"></path><path d="M0 199L39 266L92 163Z" fill="#d837a7" stroke="#d837a7"></path><path d="M864 412L880 365L776 361Z" fill="#d837a7" stroke="#d837a7"></path><path d="M888 120L877 177L927 228Z" fill="#b5329c" stroke="#b5329c"></path><path d="M877 205L877 177L810 174Z" fill="#54226e" stroke="#54226e"></path><path d="M125 38L107 24L117 80Z" fill="#54226e" stroke="#54226e"></path><path d="M148 0L140 0L125 38Z" fill="#c734a2" stroke="#c734a2"></path><path d="M94 415L95 328L0 387Z" fill="#832a88" stroke="#832a88"></path><path d="M28 431L94 415L0 387Z" fill="#832a88" stroke="#832a88"></path><path d="M140 0L107 24L125 38Z" fill="#632577" stroke="#632577"></path><path d="M0 184L0 199L92 163Z" fill="#54226e" stroke="#54226e"></path><path d="M722 521L830 540L822 449Z" fill="#832a88" stroke="#832a88"></path><path d="M822 449L904 428L864 412Z" fill="#b5329c" stroke="#b5329c"></path><path d="M925 328L923 306L880 365Z" fill="#732880" stroke="#732880"></path><path d="M690 540L830 540L722 521Z" fill="#54226e" stroke="#54226e"></path><path d="M927 228L877 177L877 205Z" fill="#732880" stroke="#732880"></path><path d="M877 177L888 120L810 174Z" fill="#632577" stroke="#632577"></path><path d="M841 0L822 0L808 91Z" fill="#ea39ab" stroke="#ea39ab"></path><path d="M0 348L95 328L47 291Z" fill="#d837a7" stroke="#d837a7"></path><path d="M63 440L69 540L126 439Z" fill="#732880" stroke="#732880"></path><path d="M925 328L880 365L960 416Z" fill="#ea39ab" stroke="#ea39ab"></path><path d="M880 365L923 306L766 347Z" fill="#a43096" stroke="#a43096"></path><path d="M904 428L880 365L864 412Z" fill="#461e65" stroke="#461e65"></path><path d="M907 495L904 428L822 449Z" fill="#832a88" stroke="#832a88"></path><path d="M923 306L927 228L877 205Z" fill="#632577" stroke="#632577"></path><path d="M960 247L927 228L923 306Z" fill="#54226e" stroke="#54226e"></path><path d="M39 266L0 348L47 291Z" fill="#ea39ab" stroke="#ea39ab"></path><path d="M0 199L0 348L39 266Z" fill="#c734a2" stroke="#c734a2"></path><path d="M0 348L0 353L95 328Z" fill="#c734a2" stroke="#c734a2"></path><path d="M0 184L92 163L0 171Z" fill="#832a88" stroke="#832a88"></path><path d="M858 0L841 0L808 91Z" fill="#632577" stroke="#632577"></path><path d="M830 540L857 540L822 449Z" fill="#c734a2" stroke="#c734a2"></path><path d="M0 490L69 540L63 440Z" fill="#ea39ab" stroke="#ea39ab"></path><path d="M0 171L92 163L0 112Z" fill="#932d8f" stroke="#932d8f"></path><path d="M0 353L0 387L95 328Z" fill="#632577" stroke="#632577"></path><path d="M28 431L0 490L63 440Z" fill="#732880" stroke="#732880"></path><path d="M0 112L92 163L96 108Z" fill="#732880" stroke="#732880"></path><path d="M0 387L8 425L28 431Z" fill="#832a88" stroke="#832a88"></path><path d="M888 120L858 0L808 91Z" fill="#832a88" stroke="#832a88"></path><path d="M928 1L858 0L888 120Z" fill="#932d8f" stroke="#932d8f"></path><path d="M29 0L0 112L96 108Z" fill="#932d8f" stroke="#932d8f"></path><path d="M857 540L907 495L822 449Z" fill="#ea39ab" stroke="#ea39ab"></path><path d="M960 321L960 319L925 328Z" fill="#461e65" stroke="#461e65"></path><path d="M960 319L960 247L923 306Z" fill="#732880" stroke="#732880"></path><path d="M927 228L960 83L888 120Z" fill="#ea39ab" stroke="#ea39ab"></path><path d="M960 319L923 306L925 328Z" fill="#c734a2" stroke="#c734a2"></path><path d="M960 321L925 328L960 416Z" fill="#ea39ab" stroke="#ea39ab"></path><path d="M960 416L880 365L904 428Z" fill="#932d8f" stroke="#932d8f"></path><path d="M960 247L960 234L927 228Z" fill="#632577" stroke="#632577"></path><path d="M8 425L0 490L28 431Z" fill="#632577" stroke="#632577"></path><path d="M0 387L0 490L8 425Z" fill="#732880" stroke="#732880"></path><path d="M960 485L960 416L904 428Z" fill="#ea39ab" stroke="#ea39ab"></path><path d="M140 0L29 0L107 24Z" fill="#632577" stroke="#632577"></path><path d="M107 24L29 0L96 108Z" fill="#632577" stroke="#632577"></path><path d="M0 490L0 540L69 540Z" fill="#b5329c" stroke="#b5329c"></path><path d="M960 234L960 83L927 228Z" fill="#632577" stroke="#632577"></path><path d="M940 540L960 485L907 495Z" fill="#732880" stroke="#732880"></path><path d="M907 495L960 485L904 428Z" fill="#ea39ab" stroke="#ea39ab"></path><path d="M29 0L0 0L0 112Z" fill="#ea39ab" stroke="#ea39ab"></path><path d="M960 48L928 1L888 120Z" fill="#732880" stroke="#732880"></path><path d="M857 540L940 540L907 495Z" fill="#d837a7" stroke="#d837a7"></path><path d="M960 83L960 48L888 120Z" fill="#54226e" stroke="#54226e"></path><path d="M940 540L960 540L960 485Z" fill="#732880" stroke="#732880"></path><path d="M960 48L960 0L928 1Z" fill="#d837a7" stroke="#d837a7"></path><path d="M928 1L960 0L858 0Z" fill="#832a88" stroke="#832a88"></path></g></svg>